<svg viewBox="0 0 200 200" xmlns="http://www.w3.org/2000/svg" role="img" aria-label="Portal de Gestão de Dados">
  <!-- Cylinder body -->
  <rect x="13" y="22" width="114" height="130" fill="#2C2C2C"/>
  <ellipse cx="70" cy="152" rx="57" ry="17" fill="#2C2C2C"/>
  <ellipse cx="70" cy="22" rx="57" ry="17" fill="#2C2C2C"/>
  <!-- Ring dividers -->
  <line x1="13" y1="65.3" x2="127" y2="65.3" stroke="#FFFFFF" stroke-width="2.5"/>
  <line x1="13" y1="108.7" x2="127" y2="108.7" stroke="#FFFFFF" stroke-width="2.5"/>
  <!-- Section dots -->
  <circle cx="30" cy="43.7" r="6.5" fill="#FFFFFF"/>
  <circle cx="30" cy="87.0" r="6.5" fill="#FFFFFF"/>
  <circle cx="30" cy="130.3" r="6.5" fill="#FFFFFF"/>
  <!-- Gear with white outline -->
  <path d="M 179.28,145.68 L 193.58,146.08 L 193.58,157.92 L 179.28,158.32 L 175.76,166.82 L 185.59,177.22 L 177.22,185.59 L 166.82,175.76 L 158.32,179.28 L 157.92,193.58 L 146.08,193.58 L 145.68,179.28 L 137.18,175.76 L 126.78,185.59 L 118.41,177.22 L 128.24,166.82 L 124.72,158.32 L 110.42,157.92 L 110.42,146.08 L 124.72,145.68 L 128.24,137.18 L 118.41,126.78 L 126.78,118.41 L 137.18,128.24 L 145.68,124.72 L 146.08,110.42 L 157.92,110.42 L 158.32,124.72 L 166.82,128.24 L 177.22,118.41 L 185.59,126.78 L 175.76,137.18 Z" fill="#2C2C2C" stroke="#FFFFFF" stroke-width="5" stroke-linejoin="round" style="paint-order:stroke fill"/>
  <!-- Gear inner circle -->
  <circle cx="152" cy="152" r="21" fill="#FFFFFF"/>
  <!-- Bar chart -->
  <rect x="138.0" y="153" width="7" height="10" rx="1" fill="#2C2C2C"/>
  <rect x="148.5" y="149" width="7" height="14" rx="1" fill="#2C2C2C"/>
  <rect x="159.0" y="143" width="7" height="20" rx="1" fill="#2C2C2C"/>
  <rect x="137.0" y="163" width="30.0" height="2" fill="#2C2C2C"/>
</svg>